<svg viewBox="0 0 160 135" width="160" height="135" xmlns="http://www.w3.org/2000/svg">
  <!-- Ekor -->
  <path d="M108 90 Q128 74 132 56" fill="none" stroke="#c8d4f8" stroke-width="6" stroke-linecap="round"/>
  <!-- Telinga kiri -->
  <ellipse cx="46" cy="72" rx="13" ry="20" fill="#c8d4f8" transform="rotate(-10 46 72)"/>
  <!-- Telinga kanan -->
  <ellipse cx="114" cy="72" rx="13" ry="20" fill="#c8d4f8" transform="rotate(10 114 72)"/>
  <!-- Kepala -->
  <ellipse cx="80" cy="85" rx="40" ry="36" fill="#dce6ff"/>
  <!-- Topi konstruksi -->
  <ellipse cx="80" cy="56" rx="38" ry="8" fill="#f6c23e"/>
  <rect x="52" y="48" width="56" height="14" rx="4" fill="#f6c23e"/>
  <rect x="60" y="42" width="40" height="12" rx="6" fill="#dda20a"/>
  <line x1="80" y1="44" x2="80" y2="54" stroke="#c49000" stroke-width="2" opacity=".6"/>
  <!-- Mata -->
  <circle cx="66" cy="82" r="7" fill="#3d4466"/>
  <circle cx="68" cy="80" r="2.5" fill="#fff"/>
  <circle cx="94" cy="82" r="7" fill="#3d4466"/>
  <circle cx="96" cy="80" r="2.5" fill="#fff"/>
  <!-- Hidung -->
  <ellipse cx="80" cy="91" rx="7" ry="5" fill="#3d4466"/>
  <ellipse cx="78" cy="89" rx="2" ry="1.5" fill="#fff" opacity=".4"/>
  <!-- Mulut senyum -->
  <path d="M70 98 Q80 105 90 98" fill="none" stroke="#3d4466" stroke-width="2" stroke-linecap="round"/>
  <!-- Lidah -->
  <ellipse cx="80" cy="106" rx="5" ry="5" fill="#ff9999"/>
  <!-- Kunci inggris -->
  <rect x="18" y="100" width="18" height="6" rx="3" fill="#858796"/>
  <circle cx="18" cy="103" r="5" fill="none" stroke="#858796" stroke-width="3"/>
</svg>
